<?xml version="1.0" standalone="no"?>
<!DOCTYPE svg PUBLIC "-//W3C//DTD SVG 20010904//EN"
 "http://www.w3.org/TR/2001/REC-SVG-20010904/DTD/svg10.dtd">
<svg version="1.0" xmlns="http://www.w3.org/2000/svg"
 width="594.000000pt" height="594.000000pt" viewBox="0 0 594.000000 594.000000"
 preserveAspectRatio="xMidYMid meet">
<metadata>
Created by potrace 1.11, written by Peter Selinger 2001-2013
</metadata>
<g transform="translate(0.000000,594.000000) scale(0.100000,-0.100000)"
fill="#000000" stroke="none">
<path d="M940 4167 c0 -46 -164 -1224 -245 -1756 -14 -90 -25 -167 -25 -170 0
-3 42 -6 94 -6 l94 0 6 110 c16 271 64 745 121 1200 8 66 15 127 15 134 0 10
3 11 9 5 33 -33 535 -1015 686 -1341 25 -54 44 -83 54 -83 10 0 31 34 60 98
127 279 681 1332 701 1332 13 0 66 -500 110 -1025 17 -203 32 -383 35 -400 l5
-30 130 0 131 -1 -5 26 c-22 106 -132 1010 -191 1565 -41 385 -33 345 -64 345
-23 0 -33 -13 -82 -102 -287 -524 -736 -1339 -749 -1362 l-18 -29 -70 119
c-160 272 -449 808 -628 1166 l-104 208 -35 0 c-19 0 -35 -1 -35 -3z"/>
<path d="M3330 3202 l0 -967 120 0 120 0 0 486 0 486 88 6 c227 17 511 19 801
7 l311 -13 0 -486 0 -486 125 0 125 0 0 967 0 966 -125 0 -125 0 0 -403 0
-402 -52 -7 c-70 -8 -891 -8 -1035 1 l-113 6 0 403 0 403 -120 0 -120 -1 0
-966z"/>
</g>
</svg>
